<mxfile host="app.diagrams.net" modified="2023-12-03T17:15:33.111Z" agent="Mozilla/5.0 (Windows NT 10.0; Win64; x64; rv:120.0) Gecko/20100101 Firefox/120.0" etag="r48RvXLJ6KQ5C1uMXaQu" version="22.1.5" type="device">
  <diagram name="PÃ¡gina-1" id="Sm3NDdk7v_GwQfVIugt3">
    <mxGraphModel dx="1728" dy="928" grid="1" gridSize="10" guides="1" tooltips="1" connect="1" arrows="1" fold="1" page="1" pageScale="1" pageWidth="827" pageHeight="1169" math="0" shadow="0">
      <root>
        <mxCell id="0" />
        <mxCell id="1" parent="0" />
        <mxCell id="eJKxZfvr1xolikL_bV8S-1" value="Trabajadores(&lt;font color=&quot;#ff0000&quot;&gt;idtrabajador&lt;/font&gt;, nombre, apellido1, apellido2, fnac, foto, localizacion, puesto, descripcion)" style="text;html=1;strokeColor=none;fillColor=none;align=left;verticalAlign=middle;whiteSpace=wrap;rounded=0;fontSize=14;" vertex="1" parent="1">
          <mxGeometry x="200" y="160" width="620" height="30" as="geometry" />
        </mxCell>
        <mxCell id="eJKxZfvr1xolikL_bV8S-2" value="Cursos(&lt;font color=&quot;#ff0000&quot;&gt;idcurso&lt;/font&gt;, nombre, fechaImp)" style="text;html=1;strokeColor=none;fillColor=none;align=left;verticalAlign=middle;whiteSpace=wrap;rounded=0;fontSize=14;" vertex="1" parent="1">
          <mxGeometry x="200" y="240" width="540" height="30" as="geometry" />
        </mxCell>
        <mxCell id="eJKxZfvr1xolikL_bV8S-3" value="TrabajadorCurso(&lt;font color=&quot;#ff0000&quot;&gt;idtrabajador&lt;/font&gt;, &lt;font color=&quot;#ff0000&quot;&gt;idcurso&lt;/font&gt;, &lt;font color=&quot;#ff0000&quot;&gt;situacion&lt;/font&gt;)" style="text;html=1;strokeColor=none;fillColor=none;align=left;verticalAlign=middle;whiteSpace=wrap;rounded=0;fontSize=14;" vertex="1" parent="1">
          <mxGeometry x="200" y="320" width="540" height="30" as="geometry" />
        </mxCell>
        <mxCell id="eJKxZfvr1xolikL_bV8S-4" value="Viajes(&lt;font color=&quot;#ff0000&quot;&gt;idviaje&lt;/font&gt;, tEstimado, ocupacion, idtrabajador)" style="text;html=1;strokeColor=none;fillColor=none;align=left;verticalAlign=middle;whiteSpace=wrap;rounded=0;fontSize=14;" vertex="1" parent="1">
          <mxGeometry x="200" y="400" width="540" height="30" as="geometry" />
        </mxCell>
        <mxCell id="eJKxZfvr1xolikL_bV8S-5" value="Usuarios(&lt;font color=&quot;#ff0000&quot;&gt;idusuario&lt;/font&gt;, nombre, apellido1, apellido2, fnac, email)" style="text;html=1;strokeColor=none;fillColor=none;align=left;verticalAlign=middle;whiteSpace=wrap;rounded=0;fontSize=14;" vertex="1" parent="1">
          <mxGeometry x="200" y="480" width="540" height="30" as="geometry" />
        </mxCell>
        <mxCell id="eJKxZfvr1xolikL_bV8S-6" value="UsuariosViajes(&lt;font color=&quot;#ff0000&quot;&gt;idusuario&lt;/font&gt;, &lt;font color=&quot;#ff0000&quot;&gt;idviaje&lt;/font&gt;, &lt;font color=&quot;#ff0000&quot;&gt;valoracion&lt;/font&gt;)" style="text;html=1;strokeColor=none;fillColor=none;align=left;verticalAlign=middle;whiteSpace=wrap;rounded=0;fontSize=14;" vertex="1" parent="1">
          <mxGeometry x="200" y="560" width="540" height="30" as="geometry" />
        </mxCell>
        <mxCell id="eJKxZfvr1xolikL_bV8S-7" value="Trenes(&lt;font color=&quot;#ff0000&quot;&gt;idtren&lt;/font&gt;, &lt;font color=&quot;#ff0000&quot;&gt;idestacion&lt;/font&gt;, matricula)" style="text;html=1;strokeColor=none;fillColor=none;align=left;verticalAlign=middle;whiteSpace=wrap;rounded=0;fontSize=14;" vertex="1" parent="1">
          <mxGeometry x="200" y="640" width="540" height="30" as="geometry" />
        </mxCell>
        <mxCell id="eJKxZfvr1xolikL_bV8S-8" value="Audios(&lt;font color=&quot;#ff0000&quot;&gt;idtren&lt;/font&gt;, &lt;font color=&quot;#ff0000&quot;&gt;idestacion&lt;/font&gt;, &lt;font color=&quot;#ff0000&quot;&gt;audio&lt;/font&gt;)" style="text;html=1;strokeColor=none;fillColor=none;align=left;verticalAlign=middle;whiteSpace=wrap;rounded=0;fontSize=14;" vertex="1" parent="1">
          <mxGeometry x="200" y="720" width="540" height="30" as="geometry" />
        </mxCell>
        <mxCell id="eJKxZfvr1xolikL_bV8S-9" value="Mensajes(&lt;font color=&quot;#ff0000&quot;&gt;idtren&lt;/font&gt;, &lt;font color=&quot;#ff0000&quot;&gt;idestacion&lt;/font&gt;, &lt;font color=&quot;#ff0000&quot;&gt;mensaje&lt;/font&gt;)" style="text;html=1;strokeColor=none;fillColor=none;align=left;verticalAlign=middle;whiteSpace=wrap;rounded=0;fontSize=14;" vertex="1" parent="1">
          <mxGeometry x="200" y="800" width="540" height="30" as="geometry" />
        </mxCell>
        <mxCell id="eJKxZfvr1xolikL_bV8S-10" value="ViajeTren(&lt;font color=&quot;#ff0000&quot;&gt;idviaje&lt;/font&gt;, &lt;font color=&quot;#ff0000&quot;&gt;idtren&lt;/font&gt;, &lt;font color=&quot;#ff0000&quot;&gt;idestacion&lt;/font&gt;)" style="text;html=1;strokeColor=none;fillColor=none;align=left;verticalAlign=middle;whiteSpace=wrap;rounded=0;fontSize=14;" vertex="1" parent="1">
          <mxGeometry x="200" y="1040" width="540" height="30" as="geometry" />
        </mxCell>
        <mxCell id="eJKxZfvr1xolikL_bV8S-11" value="Estaciones(&lt;font color=&quot;#ff0000&quot;&gt;idestacion&lt;/font&gt;, provincia, ciudad, idtrabajador)" style="text;html=1;strokeColor=none;fillColor=none;align=left;verticalAlign=middle;whiteSpace=wrap;rounded=0;fontSize=14;" vertex="1" parent="1">
          <mxGeometry x="200" y="1120" width="540" height="30" as="geometry" />
        </mxCell>
        <mxCell id="eJKxZfvr1xolikL_bV8S-12" value="Puntos(&lt;font color=&quot;#ff0000&quot;&gt;idpunto&lt;/font&gt;, pGanadosReserva, pGanadosKM, pGastadosViaje, pGastadosPromo, fechaGanados, fechaGastados, idusuario)" style="text;html=1;strokeColor=none;fillColor=none;align=left;verticalAlign=middle;whiteSpace=wrap;rounded=0;fontSize=14;" vertex="1" parent="1">
          <mxGeometry x="200" y="1200" width="560" height="30" as="geometry" />
        </mxCell>
        <mxCell id="eJKxZfvr1xolikL_bV8S-13" value="Conduce(&lt;font color=&quot;#ff0000&quot;&gt;idtren&lt;/font&gt;, &lt;font color=&quot;#ff0000&quot;&gt;idestacion&lt;/font&gt;, &lt;font color=&quot;#ff0000&quot;&gt;idtrabajador&lt;/font&gt;, &lt;font color=&quot;#ff0000&quot;&gt;fecha&lt;/font&gt;)" style="text;html=1;strokeColor=none;fillColor=none;align=left;verticalAlign=middle;whiteSpace=wrap;rounded=0;fontSize=14;" vertex="1" parent="1">
          <mxGeometry x="200" y="880" width="540" height="30" as="geometry" />
        </mxCell>
        <mxCell id="eJKxZfvr1xolikL_bV8S-14" value="Mantiene(&lt;font color=&quot;#ff0000&quot;&gt;idtren&lt;/font&gt;, &lt;font color=&quot;#ff0000&quot;&gt;idestacion&lt;/font&gt;, &lt;font color=&quot;#ff0000&quot;&gt;idtrabajador&lt;/font&gt;, &lt;font color=&quot;#ff0000&quot;&gt;fecha&lt;/font&gt;)" style="text;html=1;strokeColor=none;fillColor=none;align=left;verticalAlign=middle;whiteSpace=wrap;rounded=0;fontSize=14;" vertex="1" parent="1">
          <mxGeometry x="200" y="960" width="540" height="30" as="geometry" />
        </mxCell>
        <mxCell id="eJKxZfvr1xolikL_bV8S-15" value="" style="endArrow=none;html=1;rounded=0;entryX=0.579;entryY=0.984;entryDx=0;entryDy=0;entryPerimeter=0;movable=1;resizable=1;rotatable=1;deletable=1;editable=1;locked=0;connectable=1;strokeColor=#0000FF;" edge="1" parent="1">
          <mxGeometry width="50" height="50" relative="1" as="geometry">
            <mxPoint x="435" y="425" as="sourcePoint" />
            <mxPoint x="512.66" y="424.52" as="targetPoint" />
            <Array as="points">
              <mxPoint x="470" y="425" />
            </Array>
          </mxGeometry>
        </mxCell>
        <mxCell id="eJKxZfvr1xolikL_bV8S-16" value="" style="endArrow=none;html=1;rounded=0;movable=1;resizable=1;rotatable=1;deletable=1;editable=1;locked=0;connectable=1;strokeColor=#0000FF;entryX=0.293;entryY=1;entryDx=0;entryDy=0;entryPerimeter=0;" edge="1" parent="1">
          <mxGeometry width="50" height="50" relative="1" as="geometry">
            <mxPoint x="300" y="585" as="sourcePoint" />
            <mxPoint x="358.22" y="585" as="targetPoint" />
          </mxGeometry>
        </mxCell>
        <mxCell id="eJKxZfvr1xolikL_bV8S-17" value="" style="endArrow=none;html=1;rounded=0;movable=1;resizable=1;rotatable=1;deletable=1;editable=1;locked=0;connectable=1;strokeColor=#0000FF;" edge="1" parent="1">
          <mxGeometry width="50" height="50" relative="1" as="geometry">
            <mxPoint x="365" y="585" as="sourcePoint" />
            <mxPoint x="405" y="585" as="targetPoint" />
            <Array as="points">
              <mxPoint x="395" y="585" />
            </Array>
          </mxGeometry>
        </mxCell>
        <mxCell id="eJKxZfvr1xolikL_bV8S-18" value="" style="endArrow=none;html=1;rounded=0;movable=1;resizable=1;rotatable=1;deletable=1;editable=1;locked=0;connectable=1;strokeColor=#0000FF;" edge="1" parent="1">
          <mxGeometry width="50" height="50" relative="1" as="geometry">
            <mxPoint x="295" y="665" as="sourcePoint" />
            <mxPoint x="359" y="665" as="targetPoint" />
          </mxGeometry>
        </mxCell>
        <mxCell id="eJKxZfvr1xolikL_bV8S-20" value="" style="endArrow=none;html=1;rounded=0;movable=1;resizable=1;rotatable=1;deletable=1;editable=1;locked=0;connectable=1;strokeColor=#0000FF;" edge="1" parent="1">
          <mxGeometry width="50" height="50" relative="1" as="geometry">
            <mxPoint x="251" y="745" as="sourcePoint" />
            <mxPoint x="359" y="745" as="targetPoint" />
          </mxGeometry>
        </mxCell>
        <mxCell id="eJKxZfvr1xolikL_bV8S-21" value="" style="endArrow=none;html=1;rounded=0;movable=1;resizable=1;rotatable=1;deletable=1;editable=1;locked=0;connectable=1;strokeColor=#0000FF;" edge="1" parent="1">
          <mxGeometry width="50" height="50" relative="1" as="geometry">
            <mxPoint x="270" y="824" as="sourcePoint" />
            <mxPoint x="374" y="824" as="targetPoint" />
          </mxGeometry>
        </mxCell>
        <mxCell id="eJKxZfvr1xolikL_bV8S-23" value="" style="endArrow=none;html=1;rounded=0;movable=1;resizable=1;rotatable=1;deletable=1;editable=1;locked=0;connectable=1;strokeColor=#0000FF;" edge="1" parent="1">
          <mxGeometry width="50" height="50" relative="1" as="geometry">
            <mxPoint x="270" y="904" as="sourcePoint" />
            <mxPoint x="370" y="904" as="targetPoint" />
          </mxGeometry>
        </mxCell>
        <mxCell id="eJKxZfvr1xolikL_bV8S-24" value="" style="endArrow=none;html=1;rounded=0;movable=1;resizable=1;rotatable=1;deletable=1;editable=1;locked=0;connectable=1;strokeColor=#0000FF;" edge="1" parent="1">
          <mxGeometry width="50" height="50" relative="1" as="geometry">
            <mxPoint x="381" y="904" as="sourcePoint" />
            <mxPoint x="455" y="904" as="targetPoint" />
          </mxGeometry>
        </mxCell>
        <mxCell id="eJKxZfvr1xolikL_bV8S-25" value="" style="endArrow=none;html=1;rounded=0;movable=1;resizable=1;rotatable=1;deletable=1;editable=1;locked=0;connectable=1;strokeColor=#0000FF;" edge="1" parent="1">
          <mxGeometry width="50" height="50" relative="1" as="geometry">
            <mxPoint x="382" y="984" as="sourcePoint" />
            <mxPoint x="456" y="984" as="targetPoint" />
          </mxGeometry>
        </mxCell>
        <mxCell id="eJKxZfvr1xolikL_bV8S-26" value="" style="endArrow=none;html=1;rounded=0;movable=1;resizable=1;rotatable=1;deletable=1;editable=1;locked=0;connectable=1;strokeColor=#0000FF;" edge="1" parent="1">
          <mxGeometry width="50" height="50" relative="1" as="geometry">
            <mxPoint x="267" y="984" as="sourcePoint" />
            <mxPoint x="370" y="984" as="targetPoint" />
          </mxGeometry>
        </mxCell>
        <mxCell id="eJKxZfvr1xolikL_bV8S-28" value="" style="endArrow=none;html=1;rounded=0;movable=1;resizable=1;rotatable=1;deletable=1;editable=1;locked=0;connectable=1;strokeColor=#0000FF;" edge="1" parent="1">
          <mxGeometry width="50" height="50" relative="1" as="geometry">
            <mxPoint x="267" y="1064" as="sourcePoint" />
            <mxPoint x="307" y="1064" as="targetPoint" />
          </mxGeometry>
        </mxCell>
        <mxCell id="eJKxZfvr1xolikL_bV8S-30" value="" style="endArrow=none;html=1;rounded=0;movable=1;resizable=1;rotatable=1;deletable=1;editable=1;locked=0;connectable=1;strokeColor=#0000FF;" edge="1" parent="1">
          <mxGeometry width="50" height="50" relative="1" as="geometry">
            <mxPoint x="319" y="1064" as="sourcePoint" />
            <mxPoint x="421" y="1064" as="targetPoint" />
          </mxGeometry>
        </mxCell>
        <mxCell id="eJKxZfvr1xolikL_bV8S-31" value="" style="endArrow=none;html=1;rounded=0;movable=1;resizable=1;rotatable=1;deletable=1;editable=1;locked=0;connectable=1;strokeColor=#0000FF;" edge="1" parent="1">
          <mxGeometry width="50" height="50" relative="1" as="geometry">
            <mxPoint x="463" y="1144" as="sourcePoint" />
            <mxPoint x="537" y="1144" as="targetPoint" />
          </mxGeometry>
        </mxCell>
        <mxCell id="eJKxZfvr1xolikL_bV8S-32" value="" style="endArrow=none;html=1;rounded=0;movable=1;resizable=1;rotatable=1;deletable=1;editable=1;locked=0;connectable=1;strokeColor=#0000FF;" edge="1" parent="1">
          <mxGeometry width="50" height="50" relative="1" as="geometry">
            <mxPoint x="410" y="1232" as="sourcePoint" />
            <mxPoint x="460" y="1232" as="targetPoint" />
          </mxGeometry>
        </mxCell>
        <mxCell id="eJKxZfvr1xolikL_bV8S-33" value="" style="endArrow=classic;html=1;rounded=0;exitX=0.26;exitY=0.079;exitDx=0;exitDy=0;exitPerimeter=0;" edge="1" parent="1" source="eJKxZfvr1xolikL_bV8S-3">
          <mxGeometry width="50" height="50" relative="1" as="geometry">
            <mxPoint x="339.8600000000001" y="311.23" as="sourcePoint" />
            <mxPoint x="340" y="180" as="targetPoint" />
            <Array as="points">
              <mxPoint x="340" y="281.23" />
              <mxPoint x="470" y="281.23" />
              <mxPoint x="470" y="230" />
              <mxPoint x="400" y="230" />
              <mxPoint x="340" y="230" />
            </Array>
          </mxGeometry>
        </mxCell>
        <mxCell id="eJKxZfvr1xolikL_bV8S-34" value="" style="endArrow=classic;html=1;rounded=0;entryX=0.273;entryY=1;entryDx=0;entryDy=0;entryPerimeter=0;exitX=0.537;exitY=0.333;exitDx=0;exitDy=0;exitPerimeter=0;" edge="1" parent="1" source="eJKxZfvr1xolikL_bV8S-4">
          <mxGeometry width="50" height="50" relative="1" as="geometry">
            <mxPoint x="452.48" y="396" as="sourcePoint" />
            <mxPoint x="350" y="180" as="targetPoint" />
            <Array as="points">
              <mxPoint x="490" y="370" />
              <mxPoint x="530" y="370" />
              <mxPoint x="530" y="310" />
              <mxPoint x="530" y="210" />
              <mxPoint x="350" y="210" />
            </Array>
          </mxGeometry>
        </mxCell>
        <mxCell id="eJKxZfvr1xolikL_bV8S-35" value="" style="endArrow=classic;html=1;rounded=0;exitX=0.4;exitY=1.052;exitDx=0;exitDy=0;exitPerimeter=0;" edge="1" parent="1" source="eJKxZfvr1xolikL_bV8S-3">
          <mxGeometry width="50" height="50" relative="1" as="geometry">
            <mxPoint x="420" y="360" as="sourcePoint" />
            <mxPoint x="280" y="264" as="targetPoint" />
            <Array as="points">
              <mxPoint x="416" y="360" />
              <mxPoint x="180" y="360" />
              <mxPoint x="180" y="300" />
              <mxPoint x="280" y="300" />
            </Array>
          </mxGeometry>
        </mxCell>
        <mxCell id="eJKxZfvr1xolikL_bV8S-36" value="" style="endArrow=none;html=1;rounded=0;entryX=0.579;entryY=0.984;entryDx=0;entryDy=0;entryPerimeter=0;movable=1;resizable=1;rotatable=1;deletable=1;editable=1;locked=0;connectable=1;strokeColor=#0000FF;" edge="1" parent="1">
          <mxGeometry width="50" height="50" relative="1" as="geometry">
            <mxPoint x="313" y="344.48" as="sourcePoint" />
            <mxPoint x="390.65999999999997" y="344" as="targetPoint" />
            <Array as="points">
              <mxPoint x="348" y="344.48" />
            </Array>
          </mxGeometry>
        </mxCell>
        <mxCell id="eJKxZfvr1xolikL_bV8S-37" value="" style="endArrow=none;html=1;rounded=0;movable=1;resizable=1;rotatable=1;deletable=1;editable=1;locked=0;connectable=1;strokeColor=#0000FF;" edge="1" parent="1">
          <mxGeometry width="50" height="50" relative="1" as="geometry">
            <mxPoint x="400" y="344" as="sourcePoint" />
            <mxPoint x="438" y="344" as="targetPoint" />
            <Array as="points" />
          </mxGeometry>
        </mxCell>
        <mxCell id="eJKxZfvr1xolikL_bV8S-38" value="" style="endArrow=classic;html=1;rounded=0;exitX=0.25;exitY=1;exitDx=0;exitDy=0;" edge="1" parent="1" source="eJKxZfvr1xolikL_bV8S-6">
          <mxGeometry width="50" height="50" relative="1" as="geometry">
            <mxPoint x="340" y="610" as="sourcePoint" />
            <mxPoint x="290" y="510" as="targetPoint" />
            <Array as="points">
              <mxPoint x="335" y="610" />
              <mxPoint x="190" y="610" />
              <mxPoint x="190" y="550" />
              <mxPoint x="290" y="550" />
            </Array>
          </mxGeometry>
        </mxCell>
        <mxCell id="eJKxZfvr1xolikL_bV8S-40" value="" style="endArrow=classic;html=1;rounded=0;exitX=0.25;exitY=1;exitDx=0;exitDy=0;entryX=0.111;entryY=1;entryDx=0;entryDy=0;entryPerimeter=0;" edge="1" parent="1" target="eJKxZfvr1xolikL_bV8S-4">
          <mxGeometry width="50" height="50" relative="1" as="geometry">
            <mxPoint x="385" y="590" as="sourcePoint" />
            <mxPoint x="180" y="450" as="targetPoint" />
            <Array as="points">
              <mxPoint x="385" y="620" />
              <mxPoint x="310" y="620" />
              <mxPoint x="180" y="620" />
              <mxPoint x="180" y="590" />
              <mxPoint x="180" y="540" />
              <mxPoint x="180" y="460" />
              <mxPoint x="260" y="460" />
            </Array>
          </mxGeometry>
        </mxCell>
        <mxCell id="eJKxZfvr1xolikL_bV8S-41" value="" style="endArrow=classic;html=1;rounded=0;entryX=0.23;entryY=1.071;entryDx=0;entryDy=0;entryPerimeter=0;exitX=0.209;exitY=0.333;exitDx=0;exitDy=0;exitPerimeter=0;" edge="1" parent="1" source="eJKxZfvr1xolikL_bV8S-11" target="eJKxZfvr1xolikL_bV8S-7">
          <mxGeometry width="50" height="50" relative="1" as="geometry">
            <mxPoint x="440" y="900" as="sourcePoint" />
            <mxPoint x="490" y="850" as="targetPoint" />
            <Array as="points">
              <mxPoint x="313" y="1100" />
              <mxPoint x="120" y="1100" />
              <mxPoint x="120" y="780" />
              <mxPoint x="120" y="690" />
              <mxPoint x="324" y="690" />
            </Array>
          </mxGeometry>
        </mxCell>
        <mxCell id="eJKxZfvr1xolikL_bV8S-42" value="" style="endArrow=classic;html=1;rounded=0;entryX=0.169;entryY=1.071;entryDx=0;entryDy=0;entryPerimeter=0;" edge="1" parent="1" target="eJKxZfvr1xolikL_bV8S-7">
          <mxGeometry width="50" height="50" relative="1" as="geometry">
            <mxPoint x="291" y="730" as="sourcePoint" />
            <mxPoint x="490" y="780" as="targetPoint" />
          </mxGeometry>
        </mxCell>
        <mxCell id="eJKxZfvr1xolikL_bV8S-43" value="" style="endArrow=classic;html=1;rounded=0;entryX=0.187;entryY=1.11;entryDx=0;entryDy=0;entryPerimeter=0;exitX=0.204;exitY=0.333;exitDx=0;exitDy=0;exitPerimeter=0;" edge="1" parent="1" source="eJKxZfvr1xolikL_bV8S-9" target="eJKxZfvr1xolikL_bV8S-7">
          <mxGeometry width="50" height="50" relative="1" as="geometry">
            <mxPoint x="301" y="740" as="sourcePoint" />
            <mxPoint x="301" y="682" as="targetPoint" />
            <Array as="points">
              <mxPoint x="310" y="760" />
              <mxPoint x="440" y="760" />
              <mxPoint x="440" y="710" />
              <mxPoint x="301" y="710" />
            </Array>
          </mxGeometry>
        </mxCell>
        <mxCell id="eJKxZfvr1xolikL_bV8S-44" value="" style="endArrow=classic;html=1;rounded=0;entryX=0.153;entryY=0.998;entryDx=0;entryDy=0;entryPerimeter=0;exitX=0.204;exitY=0.333;exitDx=0;exitDy=0;exitPerimeter=0;" edge="1" parent="1" target="eJKxZfvr1xolikL_bV8S-7">
          <mxGeometry width="50" height="50" relative="1" as="geometry">
            <mxPoint x="304" y="887" as="sourcePoint" />
            <mxPoint x="295" y="750" as="targetPoint" />
            <Array as="points">
              <mxPoint x="304" y="860" />
              <mxPoint x="160" y="860" />
              <mxPoint x="160" y="710" />
              <mxPoint x="283" y="710" />
            </Array>
          </mxGeometry>
        </mxCell>
        <mxCell id="eJKxZfvr1xolikL_bV8S-45" value="" style="endArrow=classic;html=1;rounded=0;entryX=0.135;entryY=1.09;entryDx=0;entryDy=0;entryPerimeter=0;exitX=0.204;exitY=0.333;exitDx=0;exitDy=0;exitPerimeter=0;" edge="1" parent="1" target="eJKxZfvr1xolikL_bV8S-7">
          <mxGeometry width="50" height="50" relative="1" as="geometry">
            <mxPoint x="304" y="970" as="sourcePoint" />
            <mxPoint x="283" y="753" as="targetPoint" />
            <Array as="points">
              <mxPoint x="304" y="943" />
              <mxPoint x="140" y="943" />
              <mxPoint x="140" y="700" />
              <mxPoint x="273" y="700" />
            </Array>
          </mxGeometry>
        </mxCell>
        <mxCell id="eJKxZfvr1xolikL_bV8S-46" value="" style="endArrow=classic;html=1;rounded=0;exitX=0.302;exitY=-0.037;exitDx=0;exitDy=0;exitPerimeter=0;entryX=0.201;entryY=1.067;entryDx=0;entryDy=0;entryPerimeter=0;" edge="1" parent="1" source="eJKxZfvr1xolikL_bV8S-10" target="eJKxZfvr1xolikL_bV8S-7">
          <mxGeometry width="50" height="50" relative="1" as="geometry">
            <mxPoint x="560" y="890" as="sourcePoint" />
            <mxPoint x="310" y="680" as="targetPoint" />
            <Array as="points">
              <mxPoint x="363" y="1020" />
              <mxPoint x="560" y="1020" />
              <mxPoint x="560" y="700" />
              <mxPoint x="310" y="700" />
            </Array>
          </mxGeometry>
        </mxCell>
        <mxCell id="eJKxZfvr1xolikL_bV8S-47" value="" style="endArrow=classic;html=1;rounded=0;exitX=0.172;exitY=0.078;exitDx=0;exitDy=0;exitPerimeter=0;" edge="1" parent="1" source="eJKxZfvr1xolikL_bV8S-10">
          <mxGeometry width="50" height="50" relative="1" as="geometry">
            <mxPoint x="560" y="890" as="sourcePoint" />
            <mxPoint x="277" y="430" as="targetPoint" />
            <Array as="points">
              <mxPoint x="293" y="1030" />
              <mxPoint x="100" y="1030" />
              <mxPoint x="100" y="470" />
              <mxPoint x="277" y="470" />
            </Array>
          </mxGeometry>
        </mxCell>
        <mxCell id="eJKxZfvr1xolikL_bV8S-48" value="" style="endArrow=classic;html=1;rounded=0;exitX=0.426;exitY=0.333;exitDx=0;exitDy=0;exitPerimeter=0;" edge="1" parent="1" source="eJKxZfvr1xolikL_bV8S-13">
          <mxGeometry width="50" height="50" relative="1" as="geometry">
            <mxPoint x="610" y="690" as="sourcePoint" />
            <mxPoint x="340" y="350" as="targetPoint" />
            <Array as="points">
              <mxPoint x="430" y="860" />
              <mxPoint x="600" y="860" />
              <mxPoint x="600" y="380" />
              <mxPoint x="340" y="380" />
            </Array>
          </mxGeometry>
        </mxCell>
        <mxCell id="eJKxZfvr1xolikL_bV8S-49" value="" style="endArrow=classic;html=1;rounded=0;exitX=0.444;exitY=0.333;exitDx=0;exitDy=0;exitPerimeter=0;" edge="1" parent="1" source="eJKxZfvr1xolikL_bV8S-14">
          <mxGeometry width="50" height="50" relative="1" as="geometry">
            <mxPoint x="440" y="890" as="sourcePoint" />
            <mxPoint x="350" y="350" as="targetPoint" />
            <Array as="points">
              <mxPoint x="440" y="950" />
              <mxPoint x="610" y="950" />
              <mxPoint x="610" y="390" />
              <mxPoint x="350" y="390" />
            </Array>
          </mxGeometry>
        </mxCell>
        <mxCell id="eJKxZfvr1xolikL_bV8S-50" value="" style="endArrow=classic;html=1;rounded=0;entryX=0.194;entryY=0.667;entryDx=0;entryDy=0;entryPerimeter=0;" edge="1" parent="1" target="eJKxZfvr1xolikL_bV8S-1">
          <mxGeometry width="50" height="50" relative="1" as="geometry">
            <mxPoint x="500" y="1130" as="sourcePoint" />
            <mxPoint x="550" y="1080" as="targetPoint" />
            <Array as="points">
              <mxPoint x="500" y="1110" />
              <mxPoint x="80" y="1110" />
              <mxPoint x="80" y="210" />
              <mxPoint x="320" y="210" />
            </Array>
          </mxGeometry>
        </mxCell>
        <mxCell id="eJKxZfvr1xolikL_bV8S-51" value="" style="endArrow=classic;html=1;rounded=0;entryX=0.232;entryY=1.039;entryDx=0;entryDy=0;entryPerimeter=0;" edge="1" parent="1" target="eJKxZfvr1xolikL_bV8S-6">
          <mxGeometry width="50" height="50" relative="1" as="geometry">
            <mxPoint x="440" y="1240" as="sourcePoint" />
            <mxPoint x="610" y="800" as="targetPoint" />
            <Array as="points">
              <mxPoint x="440" y="1250" />
              <mxPoint x="60" y="1250" />
              <mxPoint x="60" y="640" />
              <mxPoint x="325" y="640" />
            </Array>
          </mxGeometry>
        </mxCell>
      </root>
    </mxGraphModel>
  </diagram>
</mxfile>
